<svg xmlns="http://www.w3.org/2000/svg" viewBox="0 0 720 340">
  <defs>
    <linearGradient id="bg" x1="0" x2="1">
      <stop offset="0" stop-color="#dce7f2"/>
      <stop offset="1" stop-color="#f8fbff"/>
    </linearGradient>
  </defs>
  <rect width="720" height="340" fill="url(#bg)"/>
  <rect x="0" y="0" width="270" height="340" fill="#071b4d" opacity=".18"/>
  <path d="M94 160l150-74 112 62-154 92z" fill="#ffffff"/>
  <path d="M626 166L476 86l-122 70 168 88z" fill="#ffffff"/>
  <path d="M238 172l64-42 76 36 48-34 80 46-154 96z" fill="#d79d1f"/>
  <path d="M240 174l104 96c25 23 64 23 90 2l80-66-90-52-47 34-76-36z" fill="#f4b400"/>
  <path d="M100 170l112-58 46 92-116 56z" fill="#081f5c"/>
  <path d="M620 176l-110-62-50 92 118 62z" fill="#081f5c"/>
  <circle cx="586" cy="68" r="54" fill="#ffffff" opacity=".45"/>
</svg>
