<svg xmlns="http://www.w3.org/2000/svg" viewBox="0 0 1200 780" role="img" aria-label="Batiment moderne">
  <defs>
    <linearGradient id="sky" x1="0" x2="1" y1="0" y2="1">
      <stop offset="0" stop-color="#eaf3ff"/>
      <stop offset="1" stop-color="#ffffff"/>
    </linearGradient>
    <linearGradient id="glass" x1="0" x2="1">
      <stop offset="0" stop-color="#dbe6f2"/>
      <stop offset="1" stop-color="#ffffff"/>
    </linearGradient>
  </defs>
  <rect width="1200" height="780" fill="url(#sky)"/>
  <circle cx="965" cy="110" r="110" fill="#f4b400" opacity=".18"/>
  <path d="M0 610c155-60 344-64 520-24 213 48 446 47 680-24v218H0z" fill="#dfe8f0"/>
  <path d="M470 210h500v365H470z" fill="#f8fbff"/>
  <path d="M430 250h120v325H430z" fill="#cfd9e6"/>
  <path d="M555 245h395v330H555z" fill="url(#glass)"/>
  <path d="M470 185h525l35 55H430z" fill="#ffffff"/>
  <g fill="#071b4d" opacity=".72">
    <rect x="600" y="285" width="16" height="290"/>
    <rect x="670" y="285" width="16" height="290"/>
    <rect x="740" y="285" width="16" height="290"/>
    <rect x="810" y="285" width="16" height="290"/>
    <rect x="880" y="285" width="16" height="290"/>
  </g>
  <g fill="#081f5c" opacity=".18">
    <rect x="570" y="290" width="370" height="48"/>
    <rect x="570" y="370" width="370" height="48"/>
    <rect x="570" y="450" width="370" height="48"/>
  </g>
  <text x="650" y="390" fill="#071b4d" font-family="Inter, Arial" font-size="34" font-weight="800">MAISON</text>
  <text x="650" y="430" fill="#071b4d" font-family="Inter, Arial" font-size="24" font-weight="700">DE L'ENTREPRISE</text>
  <rect x="140" y="600" width="930" height="26" rx="13" fill="#aebccd"/>
  <g fill="#2f7d4a">
    <path d="M230 610c-8-80 24-150 82-202-10 92-20 152-82 202z"/>
    <path d="M235 610c12-66-6-125-58-178 3 81 10 137 58 178z"/>
    <path d="M1010 608c-9-76 18-134 66-182-6 82-12 135-66 182z"/>
    <path d="M1015 608c12-58-8-113-52-160 2 70 10 121 52 160z"/>
  </g>
  <g fill="#7fa35a">
    <rect x="223" y="610" width="16" height="62"/>
    <rect x="1005" y="608" width="15" height="62"/>
  </g>
</svg>
